<svg width="235" height="92" viewBox="0 0 235 92" fill="none" xmlns="http://www.w3.org/2000/svg">
<path d="M28.4349 28.4967V25.4567H40.0629V28.4587L37.8209 28.8767L42.1909 46.0147C42.4189 47.3067 42.6216 48.3454 42.7989 49.1307L43.4069 46.0147L46.9409 31.8027L46.2189 28.8767L43.7869 28.4967V25.4567H55.7949V28.4587L52.7549 28.9147L56.5549 46.0147L57.2389 49.2067L57.9989 46.0147L62.1409 28.8767L59.3669 28.4967V25.4567H70.1969V28.4967L67.4229 28.8767L59.7089 54.5647H53.3629L49.1069 39.5927L45.0029 54.5267H39.0749L30.7529 28.8767L28.4349 28.4967ZM83.2407 32.9047C86.0527 32.9047 88.1934 33.6141 89.6627 35.0327C91.1574 36.4261 91.9047 38.4654 91.9047 41.1507C91.9047 42.2654 91.8161 43.3547 91.6387 44.4187H78.7187C78.8961 46.6227 79.4661 48.2821 80.4287 49.3967C81.3914 50.5114 82.7847 51.0687 84.6087 51.0687C86.6354 51.0687 88.5987 50.6507 90.4987 49.8147L91.4867 52.1327C90.4987 52.9687 89.1687 53.6274 87.4967 54.1087C85.8501 54.5647 84.2667 54.7927 82.7467 54.7927C79.2761 54.7927 76.5907 53.8934 74.6907 52.0947C72.8161 50.2707 71.8787 47.7121 71.8787 44.4187C71.8787 42.1894 72.3601 40.2007 73.3227 38.4527C74.2854 36.7047 75.6281 35.3494 77.3507 34.3867C79.0734 33.3987 81.0367 32.9047 83.2407 32.9047ZM82.6707 35.4887C80.3654 35.4887 79.0481 37.4774 78.7187 41.4547H85.5207C85.6221 40.5427 85.6727 39.7701 85.6727 39.1367C85.6727 36.7047 84.6721 35.4887 82.6707 35.4887ZM97.0146 51.2587V28.5727L94.5066 27.5087V24.9247L102.487 24.0127L103.589 24.3547V51.1827L106.819 51.7527V54.2607H94.8106V51.7527L97.0146 51.2587ZM110.671 51.2587V28.5727L108.163 27.5087V24.9247L116.143 24.0127L117.245 24.3547V51.1827L120.475 51.7527V54.2607H108.467V51.7527L110.671 51.2587Z" fill="#325D92"/>
<path d="M120.754 27.5087V24.9247L128.582 24.0507L129.646 24.3547V34.0827C130.989 33.2974 132.61 32.9047 134.51 32.9047C137.373 32.9047 139.589 33.8167 141.16 35.6407C142.756 37.4394 143.554 39.9094 143.554 43.0507C143.554 45.2294 143.035 47.2181 141.996 49.0167C140.983 50.7901 139.577 52.1961 137.778 53.2347C136.005 54.2734 134.029 54.7927 131.85 54.7927C130.229 54.7927 128.531 54.6281 126.758 54.2987C124.985 53.9947 123.756 53.6401 123.072 53.2347V28.5727L120.754 27.5087ZM129.646 50.5367C129.899 51.0181 130.279 51.3981 130.786 51.6767C131.318 51.9554 131.901 52.0947 132.534 52.0947C134.079 52.0947 135.194 51.2714 135.878 49.6247C136.587 47.9527 136.942 45.8754 136.942 43.3927C136.942 41.3914 136.486 39.6814 135.574 38.2627C134.687 36.8441 133.484 36.1347 131.964 36.1347C131.052 36.1347 130.279 36.2614 129.646 36.5147V50.5367ZM157.668 32.9047C160.48 32.9047 162.621 33.6141 164.09 35.0327C165.585 36.4261 166.332 38.4654 166.332 41.1507C166.332 42.2654 166.244 43.3547 166.066 44.4187H153.146C153.324 46.6227 153.894 48.2821 154.856 49.3967C155.819 50.5114 157.212 51.0687 159.036 51.0687C161.063 51.0687 163.026 50.6507 164.926 49.8147L165.914 52.1327C164.926 52.9687 163.596 53.6274 161.924 54.1087C160.278 54.5647 158.694 54.7927 157.174 54.7927C153.704 54.7927 151.018 53.8934 149.118 52.0947C147.244 50.2707 146.306 47.7121 146.306 44.4187C146.306 42.1894 146.788 40.2007 147.75 38.4527C148.713 36.7047 150.056 35.3494 151.778 34.3867C153.501 33.3987 155.464 32.9047 157.668 32.9047ZM157.098 35.4887C154.793 35.4887 153.476 37.4774 153.146 41.4547H159.948C160.05 40.5427 160.1 39.7701 160.1 39.1367C160.1 36.7047 159.1 35.4887 157.098 35.4887ZM175.318 22.0367C176.534 22.0367 177.472 22.3534 178.13 22.9867C178.789 23.5947 179.118 24.4434 179.118 25.5327C179.118 26.7487 178.662 27.7494 177.75 28.5347C176.864 29.2947 175.812 29.6747 174.596 29.6747C173.532 29.6747 172.633 29.3454 171.898 28.6867C171.164 28.0281 170.796 27.1921 170.796 26.1787C170.796 25.4187 171.012 24.7221 171.442 24.0887C171.898 23.4554 172.468 22.9614 173.152 22.6067C173.862 22.2267 174.584 22.0367 175.318 22.0367ZM178.472 33.3607V51.2587L181.132 51.7527V54.2607H169.428V51.7527L171.898 51.2207V39.6687L169.542 37.0087V35.2607L176.876 32.9047L178.472 33.3607ZM185.929 51.2587V39.0607L183.421 37.2747V34.9567L190.299 32.9047L191.705 33.2467V36.0207C192.668 35.0581 193.859 34.2981 195.277 33.7407C196.721 33.1834 198.115 32.9047 199.457 32.9047C201.712 32.9047 203.295 33.6014 204.207 34.9947C205.119 36.3881 205.575 38.4781 205.575 41.2647V51.2587L208.159 51.7527V54.2607H196.341V51.7527L199.001 51.2207V42.1007C199.001 40.7327 198.913 39.7194 198.735 39.0607C198.558 38.3767 198.203 37.8954 197.671 37.6167C197.165 37.3381 196.379 37.1987 195.315 37.1987C194.986 37.1987 194.492 37.3001 193.833 37.5027C193.175 37.6801 192.731 37.8574 192.503 38.0347V51.2207L194.783 51.7527V54.2607H183.611V51.7527L185.929 51.2587ZM220.502 32.9047C223.34 32.9047 225.518 33.4874 227.038 34.6527C227.596 33.4874 228.976 32.9047 231.18 32.9047H232.814V37.3887H228.976C229.204 38.0727 229.318 38.8327 229.318 39.6687C229.318 42.1261 228.432 43.9754 226.658 45.2167C224.885 46.4581 222.58 47.0787 219.742 47.0787C218.476 47.0787 217.386 46.9901 216.474 46.8127C216.272 47.2941 216.17 47.7374 216.17 48.1427C216.17 48.8774 216.386 49.4221 216.816 49.7767C217.272 50.1061 217.944 50.2707 218.83 50.2707H223.2C225.278 50.2707 226.95 50.4481 228.216 50.8027C229.508 51.1321 230.484 51.7401 231.142 52.6267C231.801 53.4881 232.13 54.7167 232.13 56.3127C232.13 58.0101 231.56 59.4414 230.42 60.6067C229.28 61.7974 227.773 62.6714 225.898 63.2287C224.049 63.8114 222.022 64.1027 219.818 64.1027C216.93 64.1027 214.625 63.6721 212.902 62.8107C211.18 61.9747 210.318 60.5814 210.318 58.6307C210.318 57.5667 210.597 56.5914 211.154 55.7047C211.737 54.8434 212.497 54.1467 213.434 53.6147C212.624 53.2854 212.079 52.8674 211.8 52.3607C211.522 51.8287 211.382 51.0814 211.382 50.1187C211.382 49.4854 211.636 48.7761 212.142 47.9907C212.674 47.1801 213.257 46.5087 213.89 45.9767C211.484 44.8114 210.28 42.9114 210.28 40.2767C210.28 38.6807 210.736 37.3254 211.648 36.2107C212.586 35.0961 213.827 34.2727 215.372 33.7407C216.918 33.1834 218.628 32.9047 220.502 32.9047ZM219.856 35.4887C218.894 35.4887 218.121 35.8054 217.538 36.4387C216.981 37.0467 216.702 37.8574 216.702 38.8707C216.702 40.5174 216.968 41.8094 217.5 42.7467C218.032 43.6587 218.932 44.1147 220.198 44.1147C221.237 44.1147 222.01 43.7221 222.516 42.9367C223.023 42.1261 223.276 41.1127 223.276 39.8967C223.276 38.4781 222.985 37.3887 222.402 36.6287C221.82 35.8687 220.971 35.4887 219.856 35.4887ZM216.398 54.1847C216.044 54.8941 215.866 55.7681 215.866 56.8067C215.866 58.2507 216.348 59.3401 217.31 60.0747C218.298 60.8094 219.552 61.1767 221.072 61.1767C222.82 61.1767 224.1 60.9487 224.91 60.4927C225.721 60.0367 226.126 59.1374 226.126 57.7947C226.126 56.4267 225.822 55.4894 225.214 54.9827C224.606 54.5014 223.517 54.2607 221.946 54.2607H218.678C217.614 54.2607 216.854 54.2354 216.398 54.1847Z" fill="#B7AEE8"/>
<path d="M192.26 28.2607L191.666 26.7847L195.392 22.6627C195.596 22.4467 195.812 22.1947 196.04 21.9067C196.28 21.6187 196.508 21.3247 196.724 21.0247C196.952 20.7127 197.132 20.4127 197.264 20.1247C197.396 19.8247 197.462 19.5547 197.462 19.3147C197.462 19.0387 197.402 18.7987 197.282 18.5947C197.162 18.3787 196.988 18.2107 196.76 18.0907C196.532 17.9707 196.25 17.9107 195.914 17.9107C195.602 17.9107 195.308 17.9947 195.032 18.1627C194.756 18.3187 194.498 18.5527 194.258 18.8647C194.018 19.1767 193.808 19.5547 193.628 19.9987L191.612 18.8647C191.852 18.1687 192.194 17.5627 192.638 17.0467C193.082 16.5307 193.61 16.1287 194.222 15.8407C194.834 15.5527 195.488 15.4087 196.184 15.4087C196.916 15.4207 197.576 15.5767 198.164 15.8767C198.752 16.1767 199.214 16.5967 199.55 17.1367C199.886 17.6767 200.054 18.3007 200.054 19.0087C200.054 19.2727 200.024 19.5427 199.964 19.8187C199.916 20.0947 199.826 20.3827 199.694 20.6827C199.574 20.9827 199.412 21.3007 199.208 21.6367C199.016 21.9607 198.776 22.3087 198.488 22.6807C198.212 23.0407 197.894 23.4187 197.534 23.8147L194.672 26.9287L194.312 25.8307H200.576V28.2607H192.26ZM206.729 28.4407C205.649 28.4407 204.725 28.1827 203.957 27.6667C203.201 27.1507 202.619 26.4127 202.211 25.4527C201.815 24.4807 201.617 23.3167 201.617 21.9607C201.617 20.6047 201.815 19.4467 202.211 18.4867C202.619 17.5147 203.201 16.7707 203.957 16.2547C204.725 15.7387 205.649 15.4807 206.729 15.4807C207.809 15.4807 208.733 15.7387 209.501 16.2547C210.269 16.7707 210.851 17.5147 211.247 18.4867C211.655 19.4467 211.859 20.6047 211.859 21.9607C211.859 23.3167 211.655 24.4807 211.247 25.4527C210.851 26.4127 210.269 27.1507 209.501 27.6667C208.733 28.1827 207.809 28.4407 206.729 28.4407ZM206.729 26.1187C207.533 26.1187 208.157 25.7587 208.601 25.0387C209.045 24.3187 209.267 23.2927 209.267 21.9607C209.267 20.6047 209.045 19.5607 208.601 18.8287C208.157 18.0967 207.533 17.7307 206.729 17.7307C205.913 17.7307 205.283 18.0967 204.839 18.8287C204.407 19.5607 204.191 20.6047 204.191 21.9607C204.191 23.2927 204.407 24.3187 204.839 25.0387C205.283 25.7587 205.913 26.1187 206.729 26.1187ZM217.553 28.3867C216.641 28.3867 215.813 28.2007 215.069 27.8287C214.337 27.4447 213.725 26.8927 213.233 26.1727L214.691 24.5527C215.207 25.1287 215.675 25.5247 216.095 25.7407C216.515 25.9447 216.977 26.0467 217.481 26.0467C217.901 26.0467 218.279 25.9567 218.615 25.7767C218.951 25.5967 219.215 25.3507 219.407 25.0387C219.599 24.7267 219.695 24.3787 219.695 23.9947C219.695 23.5987 219.599 23.2447 219.407 22.9327C219.215 22.6207 218.957 22.3747 218.633 22.1947C218.321 22.0027 217.961 21.9067 217.553 21.9067C217.289 21.9067 217.043 21.9307 216.815 21.9787C216.587 22.0147 216.335 22.0927 216.059 22.2127C215.783 22.3207 215.447 22.4827 215.051 22.6987L213.827 21.0787L214.601 15.5887H221.693V17.9107H215.969L216.635 17.1187L216.041 21.1147L215.177 20.7007C215.357 20.5327 215.603 20.3767 215.915 20.2327C216.239 20.0887 216.587 19.9687 216.959 19.8727C217.343 19.7767 217.715 19.7287 218.075 19.7287C218.867 19.7287 219.569 19.9087 220.181 20.2687C220.805 20.6287 221.297 21.1327 221.657 21.7807C222.029 22.4167 222.215 23.1487 222.215 23.9767C222.215 24.8047 222.011 25.5547 221.603 26.2267C221.195 26.8867 220.637 27.4147 219.929 27.8107C219.221 28.1947 218.429 28.3867 217.553 28.3867ZM229.054 28.4407C227.974 28.4407 227.05 28.1827 226.282 27.6667C225.526 27.1507 224.944 26.4127 224.536 25.4527C224.14 24.4807 223.942 23.3167 223.942 21.9607C223.942 20.6047 224.14 19.4467 224.536 18.4867C224.944 17.5147 225.526 16.7707 226.282 16.2547C227.05 15.7387 227.974 15.4807 229.054 15.4807C230.134 15.4807 231.058 15.7387 231.826 16.2547C232.594 16.7707 233.176 17.5147 233.572 18.4867C233.98 19.4467 234.184 20.6047 234.184 21.9607C234.184 23.3167 233.98 24.4807 233.572 25.4527C233.176 26.4127 232.594 27.1507 231.826 27.6667C231.058 28.1827 230.134 28.4407 229.054 28.4407ZM229.054 26.1187C229.858 26.1187 230.482 25.7587 230.926 25.0387C231.37 24.3187 231.592 23.2927 231.592 21.9607C231.592 20.6047 231.37 19.5607 230.926 18.8287C230.482 18.0967 229.858 17.7307 229.054 17.7307C228.238 17.7307 227.608 18.0967 227.164 18.8287C226.732 19.5607 226.516 20.6047 226.516 21.9607C226.516 23.2927 226.732 24.3187 227.164 25.0387C227.608 25.7587 228.238 26.1187 229.054 26.1187Z" fill="#FCA807"/>
<path d="M48.6205 67.2607V60.2607H51.2405C51.8338 60.2607 52.3438 60.3574 52.7705 60.5507C53.1971 60.7374 53.5238 61.0107 53.7505 61.3707C53.9838 61.7241 54.1005 62.1541 54.1005 62.6607C54.1005 63.1541 53.9838 63.5807 53.7505 63.9407C53.5238 64.2941 53.1971 64.5674 52.7705 64.7607C52.3438 64.9541 51.8338 65.0507 51.2405 65.0507H49.0305L49.3605 64.7007V67.2607H48.6205ZM49.3605 64.7607L49.0305 64.4007H51.2205C51.9205 64.4007 52.4505 64.2507 52.8105 63.9507C53.1771 63.6441 53.3605 63.2141 53.3605 62.6607C53.3605 62.1007 53.1771 61.6674 52.8105 61.3607C52.4505 61.0541 51.9205 60.9007 51.2205 60.9007H49.0305L49.3605 60.5507V64.7607ZM57.6613 67.3107C57.1546 67.3107 56.6979 67.1974 56.2913 66.9707C55.8913 66.7374 55.5746 66.4207 55.3413 66.0207C55.1079 65.6141 54.9913 65.1507 54.9913 64.6307C54.9913 64.1041 55.1079 63.6407 55.3413 63.2407C55.5746 62.8407 55.8913 62.5274 56.2913 62.3007C56.6913 62.0741 57.1479 61.9607 57.6613 61.9607C58.1813 61.9607 58.6413 62.0741 59.0413 62.3007C59.4479 62.5274 59.7646 62.8407 59.9913 63.2407C60.2246 63.6407 60.3413 64.1041 60.3413 64.6307C60.3413 65.1507 60.2246 65.6141 59.9913 66.0207C59.7646 66.4207 59.4479 66.7374 59.0413 66.9707C58.6346 67.1974 58.1746 67.3107 57.6613 67.3107ZM57.6613 66.6807C58.0413 66.6807 58.3779 66.5974 58.6713 66.4307C58.9646 66.2574 59.1946 66.0174 59.3613 65.7107C59.5346 65.3974 59.6213 65.0374 59.6213 64.6307C59.6213 64.2174 59.5346 63.8574 59.3613 63.5507C59.1946 63.2441 58.9646 63.0074 58.6713 62.8407C58.3779 62.6674 58.0446 62.5807 57.6713 62.5807C57.2979 62.5807 56.9646 62.6674 56.6713 62.8407C56.3779 63.0074 56.1446 63.2441 55.9713 63.5507C55.7979 63.8574 55.7113 64.2174 55.7113 64.6307C55.7113 65.0374 55.7979 65.3974 55.9713 65.7107C56.1446 66.0174 56.3779 66.2574 56.6713 66.4307C56.9646 66.5974 57.2946 66.6807 57.6613 66.6807ZM63.8808 67.3107C63.3808 67.3107 62.9308 67.1974 62.5308 66.9707C62.1374 66.7441 61.8274 66.4307 61.6008 66.0307C61.3741 65.6241 61.2608 65.1574 61.2608 64.6307C61.2608 64.0974 61.3741 63.6307 61.6008 63.2307C61.8274 62.8307 62.1374 62.5207 62.5308 62.3007C62.9308 62.0741 63.3808 61.9607 63.8808 61.9607C64.3408 61.9607 64.7508 62.0641 65.1108 62.2707C65.4774 62.4774 65.7674 62.7807 65.9808 63.1807C66.2008 63.5741 66.3108 64.0574 66.3108 64.6307C66.3108 65.1974 66.2041 65.6807 65.9908 66.0807C65.7774 66.4807 65.4874 66.7874 65.1208 67.0007C64.7608 67.2074 64.3474 67.3107 63.8808 67.3107ZM63.9308 66.6807C64.3041 66.6807 64.6374 66.5974 64.9308 66.4307C65.2308 66.2574 65.4641 66.0174 65.6308 65.7107C65.8041 65.3974 65.8908 65.0374 65.8908 64.6307C65.8908 64.2174 65.8041 63.8574 65.6308 63.5507C65.4641 63.2441 65.2308 63.0074 64.9308 62.8407C64.6374 62.6674 64.3041 62.5807 63.9308 62.5807C63.5641 62.5807 63.2341 62.6674 62.9408 62.8407C62.6474 63.0074 62.4141 63.2441 62.2408 63.5507C62.0674 63.8574 61.9808 64.2174 61.9808 64.6307C61.9808 65.0374 62.0674 65.3974 62.2408 65.7107C62.4141 66.0174 62.6474 66.2574 62.9408 66.4307C63.2341 66.5974 63.5641 66.6807 63.9308 66.6807ZM65.9108 67.2607V65.6807L65.9808 64.6207L65.8808 63.5607V59.8407H66.5908V67.2607H65.9108ZM70.7481 67.3107C70.2281 67.3107 69.7615 67.1974 69.3481 66.9707C68.9415 66.7374 68.6215 66.4207 68.3881 66.0207C68.1548 65.6141 68.0381 65.1507 68.0381 64.6307C68.0381 64.1041 68.1548 63.6407 68.3881 63.2407C68.6215 62.8407 68.9415 62.5274 69.3481 62.3007C69.7615 62.0741 70.2281 61.9607 70.7481 61.9607C71.1948 61.9607 71.5981 62.0474 71.9581 62.2207C72.3181 62.3941 72.6015 62.6541 72.8081 63.0007L72.2781 63.3607C72.0981 63.0941 71.8748 62.8974 71.6081 62.7707C71.3415 62.6441 71.0515 62.5807 70.7381 62.5807C70.3648 62.5807 70.0281 62.6674 69.7281 62.8407C69.4281 63.0074 69.1915 63.2441 69.0181 63.5507C68.8448 63.8574 68.7581 64.2174 68.7581 64.6307C68.7581 65.0441 68.8448 65.4041 69.0181 65.7107C69.1915 66.0174 69.4281 66.2574 69.7281 66.4307C70.0281 66.5974 70.3648 66.6807 70.7381 66.6807C71.0515 66.6807 71.3415 66.6174 71.6081 66.4907C71.8748 66.3641 72.0981 66.1707 72.2781 65.9107L72.8081 66.2707C72.6015 66.6107 72.3181 66.8707 71.9581 67.0507C71.5981 67.2241 71.1948 67.3107 70.7481 67.3107ZM77.4929 67.2607V66.1007L77.4629 65.9107V63.9707C77.4629 63.5241 77.3362 63.1807 77.0829 62.9407C76.8362 62.7007 76.4662 62.5807 75.9729 62.5807C75.6329 62.5807 75.3096 62.6374 75.0029 62.7507C74.6962 62.8641 74.4362 63.0141 74.2229 63.2007L73.9029 62.6707C74.1696 62.4441 74.4896 62.2707 74.8629 62.1507C75.2362 62.0241 75.6296 61.9607 76.0429 61.9607C76.7229 61.9607 77.2462 62.1307 77.6129 62.4707C77.9862 62.8041 78.1729 63.3141 78.1729 64.0007V67.2607H77.4929ZM75.6829 67.3107C75.2896 67.3107 74.9462 67.2474 74.6529 67.1207C74.3662 66.9874 74.1462 66.8074 73.9929 66.5807C73.8396 66.3474 73.7629 66.0807 73.7629 65.7807C73.7629 65.5074 73.8262 65.2607 73.9529 65.0407C74.0862 64.8141 74.2996 64.6341 74.5929 64.5007C74.8929 64.3607 75.2929 64.2907 75.7929 64.2907H77.6029V64.8207H75.8129C75.3062 64.8207 74.9529 64.9107 74.7529 65.0907C74.5596 65.2707 74.4629 65.4941 74.4629 65.7607C74.4629 66.0607 74.5796 66.3007 74.8129 66.4807C75.0462 66.6607 75.3729 66.7507 75.7929 66.7507C76.1929 66.7507 76.5362 66.6607 76.8229 66.4807C77.1162 66.2941 77.3296 66.0274 77.4629 65.6807L77.6229 66.1707C77.4896 66.5174 77.2562 66.7941 76.9229 67.0007C76.5962 67.2074 76.1829 67.3107 75.6829 67.3107ZM81.5113 67.3107C81.078 67.3107 80.668 67.2507 80.2813 67.1307C79.8947 67.0041 79.5913 66.8474 79.3713 66.6607L79.6913 66.1007C79.9047 66.2607 80.178 66.4007 80.5113 66.5207C80.8447 66.6341 81.1947 66.6907 81.5613 66.6907C82.0613 66.6907 82.4213 66.6141 82.6413 66.4607C82.8613 66.3007 82.9713 66.0907 82.9713 65.8307C82.9713 65.6374 82.908 65.4874 82.7813 65.3807C82.6613 65.2674 82.5013 65.1841 82.3013 65.1307C82.1013 65.0707 81.878 65.0207 81.6313 64.9807C81.3847 64.9407 81.138 64.8941 80.8913 64.8407C80.6513 64.7874 80.4313 64.7107 80.2313 64.6107C80.0313 64.5041 79.868 64.3607 79.7413 64.1807C79.6213 64.0007 79.5613 63.7607 79.5613 63.4607C79.5613 63.1741 79.6413 62.9174 79.8013 62.6907C79.9613 62.4641 80.1947 62.2874 80.5013 62.1607C80.8147 62.0274 81.1947 61.9607 81.6413 61.9607C81.9813 61.9607 82.3213 62.0074 82.6613 62.1007C83.0013 62.1874 83.2813 62.3041 83.5013 62.4507L83.1913 63.0207C82.958 62.8607 82.708 62.7474 82.4413 62.6807C82.1747 62.6074 81.908 62.5707 81.6413 62.5707C81.168 62.5707 80.818 62.6541 80.5913 62.8207C80.3713 62.9807 80.2613 63.1874 80.2613 63.4407C80.2613 63.6407 80.3213 63.7974 80.4413 63.9107C80.568 64.0241 80.7313 64.1141 80.9313 64.1807C81.138 64.2407 81.3613 64.2907 81.6013 64.3307C81.848 64.3707 82.0913 64.4207 82.3313 64.4807C82.578 64.5341 82.8013 64.6107 83.0013 64.7107C83.208 64.8041 83.3713 64.9407 83.4913 65.1207C83.618 65.2941 83.6813 65.5241 83.6813 65.8107C83.6813 66.1174 83.5947 66.3841 83.4213 66.6107C83.2547 66.8307 83.008 67.0041 82.6813 67.1307C82.3613 67.2507 81.9713 67.3107 81.5113 67.3107ZM86.6441 67.3107C86.1508 67.3107 85.7708 67.1774 85.5041 66.9107C85.2375 66.6441 85.1041 66.2674 85.1041 65.7807V60.8507H85.8141V65.7407C85.8141 66.0474 85.8908 66.2841 86.0441 66.4507C86.2041 66.6174 86.4308 66.7007 86.7241 66.7007C87.0375 66.7007 87.2975 66.6107 87.5041 66.4307L87.7541 66.9407C87.6141 67.0674 87.4441 67.1607 87.2441 67.2207C87.0508 67.2807 86.8508 67.3107 86.6441 67.3107ZM84.1641 62.6007V62.0107H87.4141V62.6007H84.1641ZM90.4566 67.3107C90.0233 67.3107 89.6133 67.2507 89.2266 67.1307C88.84 67.0041 88.5366 66.8474 88.3166 66.6607L88.6366 66.1007C88.85 66.2607 89.1233 66.4007 89.4566 66.5207C89.79 66.6341 90.14 66.6907 90.5066 66.6907C91.0066 66.6907 91.3666 66.6141 91.5866 66.4607C91.8066 66.3007 91.9166 66.0907 91.9166 65.8307C91.9166 65.6374 91.8533 65.4874 91.7266 65.3807C91.6066 65.2674 91.4466 65.1841 91.2466 65.1307C91.0466 65.0707 90.8233 65.0207 90.5766 64.9807C90.33 64.9407 90.0833 64.8941 89.8366 64.8407C89.5966 64.7874 89.3766 64.7107 89.1766 64.6107C88.9766 64.5041 88.8133 64.3607 88.6866 64.1807C88.5666 64.0007 88.5066 63.7607 88.5066 63.4607C88.5066 63.1741 88.5866 62.9174 88.7466 62.6907C88.9066 62.4641 89.14 62.2874 89.4466 62.1607C89.76 62.0274 90.14 61.9607 90.5866 61.9607C90.9266 61.9607 91.2666 62.0074 91.6066 62.1007C91.9466 62.1874 92.2266 62.3041 92.4466 62.4507L92.1366 63.0207C91.9033 62.8607 91.6533 62.7474 91.3866 62.6807C91.12 62.6074 90.8533 62.5707 90.5866 62.5707C90.1133 62.5707 89.7633 62.6541 89.5366 62.8207C89.3166 62.9807 89.2066 63.1874 89.2066 63.4407C89.2066 63.6407 89.2666 63.7974 89.3866 63.9107C89.5133 64.0241 89.6766 64.1141 89.8766 64.1807C90.0833 64.2407 90.3066 64.2907 90.5466 64.3307C90.7933 64.3707 91.0366 64.4207 91.2766 64.4807C91.5233 64.5341 91.7466 64.6107 91.9466 64.7107C92.1533 64.8041 92.3166 64.9407 92.4366 65.1207C92.5633 65.2941 92.6266 65.5241 92.6266 65.8107C92.6266 66.1174 92.54 66.3841 92.3666 66.6107C92.2 66.8307 91.9533 67.0041 91.6266 67.1307C91.3066 67.2507 90.9166 67.3107 90.4566 67.3107ZM96.6666 67.2607V61.3507C96.6666 60.8841 96.8033 60.5074 97.0766 60.2207C97.35 59.9341 97.7433 59.7907 98.2566 59.7907C98.4566 59.7907 98.65 59.8174 98.8366 59.8707C99.0233 59.9241 99.18 60.0074 99.3066 60.1207L99.0666 60.6507C98.9666 60.5641 98.85 60.5007 98.7166 60.4607C98.5833 60.4141 98.44 60.3907 98.2866 60.3907C97.9866 60.3907 97.7566 60.4741 97.5966 60.6407C97.4366 60.8074 97.3566 61.0541 97.3566 61.3807V62.1807L97.3766 62.5107V67.2607H96.6666ZM95.7266 62.6007V62.0107H98.9766V62.6007H95.7266ZM101.987 67.3107C101.481 67.3107 101.024 67.1974 100.617 66.9707C100.217 66.7374 99.9008 66.4207 99.6674 66.0207C99.4341 65.6141 99.3174 65.1507 99.3174 64.6307C99.3174 64.1041 99.4341 63.6407 99.6674 63.2407C99.9008 62.8407 100.217 62.5274 100.617 62.3007C101.017 62.0741 101.474 61.9607 101.987 61.9607C102.507 61.9607 102.967 62.0741 103.367 62.3007C103.774 62.5274 104.091 62.8407 104.317 63.2407C104.551 63.6407 104.667 64.1041 104.667 64.6307C104.667 65.1507 104.551 65.6141 104.317 66.0207C104.091 66.4207 103.774 66.7374 103.367 66.9707C102.961 67.1974 102.501 67.3107 101.987 67.3107ZM101.987 66.6807C102.367 66.6807 102.704 66.5974 102.997 66.4307C103.291 66.2574 103.521 66.0174 103.687 65.7107C103.861 65.3974 103.947 65.0374 103.947 64.6307C103.947 64.2174 103.861 63.8574 103.687 63.5507C103.521 63.2441 103.291 63.0074 102.997 62.8407C102.704 62.6674 102.371 62.5807 101.997 62.5807C101.624 62.5807 101.291 62.6674 100.997 62.8407C100.704 63.0074 100.471 63.2441 100.297 63.5507C100.124 63.8574 100.037 64.2174 100.037 64.6307C100.037 65.0374 100.124 65.3974 100.297 65.7107C100.471 66.0174 100.704 66.2574 100.997 66.4307C101.291 66.5974 101.621 66.6807 101.987 66.6807ZM106.117 67.2607V62.0107H106.797V63.4407L106.727 63.1907C106.874 62.7907 107.12 62.4874 107.467 62.2807C107.814 62.0674 108.244 61.9607 108.757 61.9607V62.6507C108.73 62.6507 108.704 62.6507 108.677 62.6507C108.65 62.6441 108.624 62.6407 108.597 62.6407C108.044 62.6407 107.61 62.8107 107.297 63.1507C106.984 63.4841 106.827 63.9607 106.827 64.5807V67.2607H106.117ZM115.938 67.3207C115.411 67.3207 114.924 67.2341 114.478 67.0607C114.031 66.8807 113.644 66.6307 113.318 66.3107C112.991 65.9907 112.734 65.6141 112.548 65.1807C112.368 64.7474 112.278 64.2741 112.278 63.7607C112.278 63.2474 112.368 62.7741 112.548 62.3407C112.734 61.9074 112.991 61.5307 113.318 61.2107C113.651 60.8907 114.041 60.6441 114.488 60.4707C114.934 60.2907 115.421 60.2007 115.948 60.2007C116.454 60.2007 116.931 60.2874 117.378 60.4607C117.824 60.6274 118.201 60.8807 118.508 61.2207L118.038 61.6907C117.751 61.3974 117.434 61.1874 117.088 61.0607C116.741 60.9274 116.368 60.8607 115.968 60.8607C115.548 60.8607 115.158 60.9341 114.798 61.0807C114.438 61.2207 114.124 61.4241 113.858 61.6907C113.591 61.9507 113.381 62.2574 113.228 62.6107C113.081 62.9574 113.008 63.3407 113.008 63.7607C113.008 64.1807 113.081 64.5674 113.228 64.9207C113.381 65.2674 113.591 65.5741 113.858 65.8407C114.124 66.1007 114.438 66.3041 114.798 66.4507C115.158 66.5907 115.548 66.6607 115.968 66.6607C116.368 66.6607 116.741 66.5941 117.088 66.4607C117.434 66.3274 117.751 66.1141 118.038 65.8207L118.508 66.2907C118.201 66.6307 117.824 66.8874 117.378 67.0607C116.931 67.2341 116.451 67.3207 115.938 67.3207ZM121.841 67.3107C121.334 67.3107 120.878 67.1974 120.471 66.9707C120.071 66.7374 119.754 66.4207 119.521 66.0207C119.288 65.6141 119.171 65.1507 119.171 64.6307C119.171 64.1041 119.288 63.6407 119.521 63.2407C119.754 62.8407 120.071 62.5274 120.471 62.3007C120.871 62.0741 121.328 61.9607 121.841 61.9607C122.361 61.9607 122.821 62.0741 123.221 62.3007C123.628 62.5274 123.944 62.8407 124.171 63.2407C124.404 63.6407 124.521 64.1041 124.521 64.6307C124.521 65.1507 124.404 65.6141 124.171 66.0207C123.944 66.4207 123.628 66.7374 123.221 66.9707C122.814 67.1974 122.354 67.3107 121.841 67.3107ZM121.841 66.6807C122.221 66.6807 122.558 66.5974 122.851 66.4307C123.144 66.2574 123.374 66.0174 123.541 65.7107C123.714 65.3974 123.801 65.0374 123.801 64.6307C123.801 64.2174 123.714 63.8574 123.541 63.5507C123.374 63.2441 123.144 63.0074 122.851 62.8407C122.558 62.6674 122.224 62.5807 121.851 62.5807C121.478 62.5807 121.144 62.6674 120.851 62.8407C120.558 63.0074 120.324 63.2441 120.151 63.5507C119.978 63.8574 119.891 64.2174 119.891 64.6307C119.891 65.0374 119.978 65.3974 120.151 65.7107C120.324 66.0174 120.558 66.2574 120.851 66.4307C121.144 66.5974 121.474 66.6807 121.841 66.6807ZM125.97 67.2607V59.8407H126.68V67.2607H125.97ZM128.656 67.2607V59.8407H129.366V67.2607H128.656ZM133.572 67.3107C133.025 67.3107 132.545 67.1974 132.132 66.9707C131.718 66.7374 131.395 66.4207 131.162 66.0207C130.928 65.6141 130.812 65.1507 130.812 64.6307C130.812 64.1107 130.922 63.6507 131.142 63.2507C131.368 62.8507 131.675 62.5374 132.062 62.3107C132.455 62.0774 132.895 61.9607 133.382 61.9607C133.875 61.9607 134.312 62.0741 134.692 62.3007C135.078 62.5207 135.382 62.8341 135.602 63.2407C135.822 63.6407 135.932 64.1041 135.932 64.6307C135.932 64.6641 135.928 64.7007 135.922 64.7407C135.922 64.7741 135.922 64.8107 135.922 64.8507H131.352V64.3207H135.542L135.262 64.5307C135.262 64.1507 135.178 63.8141 135.012 63.5207C134.852 63.2207 134.632 62.9874 134.352 62.8207C134.072 62.6541 133.748 62.5707 133.382 62.5707C133.022 62.5707 132.698 62.6541 132.412 62.8207C132.125 62.9874 131.902 63.2207 131.742 63.5207C131.582 63.8207 131.502 64.1641 131.502 64.5507V64.6607C131.502 65.0607 131.588 65.4141 131.762 65.7207C131.942 66.0207 132.188 66.2574 132.502 66.4307C132.822 66.5974 133.185 66.6807 133.592 66.6807C133.912 66.6807 134.208 66.6241 134.482 66.5107C134.762 66.3974 135.002 66.2241 135.202 65.9907L135.602 66.4507C135.368 66.7307 135.075 66.9441 134.722 67.0907C134.375 67.2374 133.992 67.3107 133.572 67.3107ZM139.557 67.3107C139.037 67.3107 138.57 67.1974 138.157 66.9707C137.75 66.7374 137.43 66.4207 137.197 66.0207C136.963 65.6141 136.847 65.1507 136.847 64.6307C136.847 64.1041 136.963 63.6407 137.197 63.2407C137.43 62.8407 137.75 62.5274 138.157 62.3007C138.57 62.0741 139.037 61.9607 139.557 61.9607C140.003 61.9607 140.407 62.0474 140.767 62.2207C141.127 62.3941 141.41 62.6541 141.617 63.0007L141.087 63.3607C140.907 63.0941 140.683 62.8974 140.417 62.7707C140.15 62.6441 139.86 62.5807 139.547 62.5807C139.173 62.5807 138.837 62.6674 138.537 62.8407C138.237 63.0074 138 63.2441 137.827 63.5507C137.653 63.8574 137.567 64.2174 137.567 64.6307C137.567 65.0441 137.653 65.4041 137.827 65.7107C138 66.0174 138.237 66.2574 138.537 66.4307C138.837 66.5974 139.173 66.6807 139.547 66.6807C139.86 66.6807 140.15 66.6174 140.417 66.4907C140.683 66.3641 140.907 66.1707 141.087 65.9107L141.617 66.2707C141.41 66.6107 141.127 66.8707 140.767 67.0507C140.407 67.2241 140.003 67.3107 139.557 67.3107ZM144.73 67.3107C144.237 67.3107 143.857 67.1774 143.59 66.9107C143.323 66.6441 143.19 66.2674 143.19 65.7807V60.8507H143.9V65.7407C143.9 66.0474 143.977 66.2841 144.13 66.4507C144.29 66.6174 144.517 66.7007 144.81 66.7007C145.123 66.7007 145.383 66.6107 145.59 66.4307L145.84 66.9407C145.7 67.0674 145.53 67.1607 145.33 67.2207C145.137 67.2807 144.937 67.3107 144.73 67.3107ZM142.25 62.6007V62.0107H145.5V62.6007H142.25ZM147.133 67.2607V62.0107H147.843V67.2607H147.133ZM147.493 60.8507C147.346 60.8507 147.223 60.8007 147.123 60.7007C147.023 60.6007 146.973 60.4807 146.973 60.3407C146.973 60.2007 147.023 60.0841 147.123 59.9907C147.223 59.8907 147.346 59.8407 147.493 59.8407C147.639 59.8407 147.763 59.8874 147.863 59.9807C147.963 60.0741 148.013 60.1907 148.013 60.3307C148.013 60.4774 147.963 60.6007 147.863 60.7007C147.769 60.8007 147.646 60.8507 147.493 60.8507ZM151.168 67.2607L148.838 62.0107H149.578L151.718 66.8807H151.368L153.538 62.0107H154.238L151.898 67.2607H151.168ZM157.322 67.3107C156.775 67.3107 156.295 67.1974 155.882 66.9707C155.468 66.7374 155.145 66.4207 154.912 66.0207C154.678 65.6141 154.562 65.1507 154.562 64.6307C154.562 64.1107 154.672 63.6507 154.892 63.2507C155.118 62.8507 155.425 62.5374 155.812 62.3107C156.205 62.0774 156.645 61.9607 157.132 61.9607C157.625 61.9607 158.062 62.0741 158.442 62.3007C158.828 62.5207 159.132 62.8341 159.352 63.2407C159.572 63.6407 159.682 64.1041 159.682 64.6307C159.682 64.6641 159.678 64.7007 159.672 64.7407C159.672 64.7741 159.672 64.8107 159.672 64.8507H155.102V64.3207H159.292L159.012 64.5307C159.012 64.1507 158.928 63.8141 158.762 63.5207C158.602 63.2207 158.382 62.9874 158.102 62.8207C157.822 62.6541 157.498 62.5707 157.132 62.5707C156.772 62.5707 156.448 62.6541 156.162 62.8207C155.875 62.9874 155.652 63.2207 155.492 63.5207C155.332 63.8207 155.252 64.1641 155.252 64.5507V64.6607C155.252 65.0607 155.338 65.4141 155.512 65.7207C155.692 66.0207 155.938 66.2574 156.252 66.4307C156.572 66.5974 156.935 66.6807 157.342 66.6807C157.662 66.6807 157.958 66.6241 158.232 66.5107C158.512 66.3974 158.752 66.2241 158.952 65.9907L159.352 66.4507C159.118 66.7307 158.825 66.9441 158.472 67.0907C158.125 67.2374 157.742 67.3107 157.322 67.3107ZM165.824 67.3207C165.304 67.3207 164.804 67.2374 164.324 67.0707C163.851 66.8974 163.484 66.6774 163.224 66.4107L163.514 65.8407C163.761 66.0807 164.091 66.2841 164.504 66.4507C164.924 66.6107 165.364 66.6907 165.824 66.6907C166.264 66.6907 166.621 66.6374 166.894 66.5307C167.174 66.4174 167.377 66.2674 167.504 66.0807C167.637 65.8941 167.704 65.6874 167.704 65.4607C167.704 65.1874 167.624 64.9674 167.464 64.8007C167.311 64.6341 167.107 64.5041 166.854 64.4107C166.601 64.3107 166.321 64.2241 166.014 64.1507C165.707 64.0774 165.401 64.0007 165.094 63.9207C164.787 63.8341 164.504 63.7207 164.244 63.5807C163.991 63.4407 163.784 63.2574 163.624 63.0307C163.471 62.7974 163.394 62.4941 163.394 62.1207C163.394 61.7741 163.484 61.4574 163.664 61.1707C163.851 60.8774 164.134 60.6441 164.514 60.4707C164.894 60.2907 165.381 60.2007 165.974 60.2007C166.367 60.2007 166.757 60.2574 167.144 60.3707C167.531 60.4774 167.864 60.6274 168.144 60.8207L167.894 61.4107C167.594 61.2107 167.274 61.0641 166.934 60.9707C166.601 60.8774 166.277 60.8307 165.964 60.8307C165.544 60.8307 165.197 60.8874 164.924 61.0007C164.651 61.1141 164.447 61.2674 164.314 61.4607C164.187 61.6474 164.124 61.8607 164.124 62.1007C164.124 62.3741 164.201 62.5941 164.354 62.7607C164.514 62.9274 164.721 63.0574 164.974 63.1507C165.234 63.2441 165.517 63.3274 165.824 63.4007C166.131 63.4741 166.434 63.5541 166.734 63.6407C167.041 63.7274 167.321 63.8407 167.574 63.9807C167.834 64.1141 168.041 64.2941 168.194 64.5207C168.354 64.7474 168.434 65.0441 168.434 65.4107C168.434 65.7507 168.341 66.0674 168.154 66.3607C167.967 66.6474 167.681 66.8807 167.294 67.0607C166.914 67.2341 166.424 67.3207 165.824 67.3207ZM172.066 67.3107C171.62 67.3107 171.23 67.2274 170.896 67.0607C170.563 66.8941 170.303 66.6441 170.116 66.3107C169.936 65.9774 169.846 65.5607 169.846 65.0607V62.0107H170.556V64.9807C170.556 65.5407 170.693 65.9641 170.966 66.2507C171.246 66.5307 171.636 66.6707 172.136 66.6707C172.503 66.6707 172.82 66.5974 173.086 66.4507C173.36 66.2974 173.566 66.0774 173.706 65.7907C173.853 65.5041 173.926 65.1607 173.926 64.7607V62.0107H174.636V67.2607H173.956V65.8207L174.066 66.0807C173.9 66.4674 173.64 66.7707 173.286 66.9907C172.94 67.2041 172.533 67.3107 172.066 67.3107ZM178.795 67.3107C178.275 67.3107 177.808 67.1974 177.395 66.9707C176.988 66.7374 176.668 66.4207 176.435 66.0207C176.202 65.6141 176.085 65.1507 176.085 64.6307C176.085 64.1041 176.202 63.6407 176.435 63.2407C176.668 62.8407 176.988 62.5274 177.395 62.3007C177.808 62.0741 178.275 61.9607 178.795 61.9607C179.242 61.9607 179.645 62.0474 180.005 62.2207C180.365 62.3941 180.648 62.6541 180.855 63.0007L180.325 63.3607C180.145 63.0941 179.922 62.8974 179.655 62.7707C179.388 62.6441 179.098 62.5807 178.785 62.5807C178.412 62.5807 178.075 62.6674 177.775 62.8407C177.475 63.0074 177.238 63.2441 177.065 63.5507C176.892 63.8574 176.805 64.2174 176.805 64.6307C176.805 65.0441 176.892 65.4041 177.065 65.7107C177.238 66.0174 177.475 66.2574 177.775 66.4307C178.075 66.5974 178.412 66.6807 178.785 66.6807C179.098 66.6807 179.388 66.6174 179.655 66.4907C179.922 66.3641 180.145 66.1707 180.325 65.9107L180.855 66.2707C180.648 66.6107 180.365 66.8707 180.005 67.0507C179.645 67.2241 179.242 67.3107 178.795 67.3107ZM184.342 67.3107C183.822 67.3107 183.355 67.1974 182.942 66.9707C182.535 66.7374 182.215 66.4207 181.982 66.0207C181.749 65.6141 181.632 65.1507 181.632 64.6307C181.632 64.1041 181.749 63.6407 181.982 63.2407C182.215 62.8407 182.535 62.5274 182.942 62.3007C183.355 62.0741 183.822 61.9607 184.342 61.9607C184.789 61.9607 185.192 62.0474 185.552 62.2207C185.912 62.3941 186.195 62.6541 186.402 63.0007L185.872 63.3607C185.692 63.0941 185.469 62.8974 185.202 62.7707C184.935 62.6441 184.645 62.5807 184.332 62.5807C183.959 62.5807 183.622 62.6674 183.322 62.8407C183.022 63.0074 182.785 63.2441 182.612 63.5507C182.439 63.8574 182.352 64.2174 182.352 64.6307C182.352 65.0441 182.439 65.4041 182.612 65.7107C182.785 66.0174 183.022 66.2574 183.322 66.4307C183.622 66.5974 183.959 66.6807 184.332 66.6807C184.645 66.6807 184.935 66.6174 185.202 66.4907C185.469 66.3641 185.692 66.1707 185.872 65.9107L186.402 66.2707C186.195 66.6107 185.912 66.8707 185.552 67.0507C185.192 67.2241 184.789 67.3107 184.342 67.3107ZM189.939 67.3107C189.392 67.3107 188.912 67.1974 188.499 66.9707C188.085 66.7374 187.762 66.4207 187.529 66.0207C187.295 65.6141 187.179 65.1507 187.179 64.6307C187.179 64.1107 187.289 63.6507 187.509 63.2507C187.735 62.8507 188.042 62.5374 188.429 62.3107C188.822 62.0774 189.262 61.9607 189.749 61.9607C190.242 61.9607 190.679 62.0741 191.059 62.3007C191.445 62.5207 191.749 62.8341 191.969 63.2407C192.189 63.6407 192.299 64.1041 192.299 64.6307C192.299 64.6641 192.295 64.7007 192.289 64.7407C192.289 64.7741 192.289 64.8107 192.289 64.8507H187.719V64.3207H191.909L191.629 64.5307C191.629 64.1507 191.545 63.8141 191.379 63.5207C191.219 63.2207 190.999 62.9874 190.719 62.8207C190.439 62.6541 190.115 62.5707 189.749 62.5707C189.389 62.5707 189.065 62.6541 188.779 62.8207C188.492 62.9874 188.269 63.2207 188.109 63.5207C187.949 63.8207 187.869 64.1641 187.869 64.5507V64.6607C187.869 65.0607 187.955 65.4141 188.129 65.7207C188.309 66.0207 188.555 66.2574 188.869 66.4307C189.189 66.5974 189.552 66.6807 189.959 66.6807C190.279 66.6807 190.575 66.6241 190.849 66.5107C191.129 66.3974 191.369 66.2241 191.569 65.9907L191.969 66.4507C191.735 66.7307 191.442 66.9441 191.089 67.0907C190.742 67.2374 190.359 67.3107 189.939 67.3107ZM195.154 67.3107C194.721 67.3107 194.311 67.2507 193.924 67.1307C193.537 67.0041 193.234 66.8474 193.014 66.6607L193.334 66.1007C193.547 66.2607 193.821 66.4007 194.154 66.5207C194.487 66.6341 194.837 66.6907 195.204 66.6907C195.704 66.6907 196.064 66.6141 196.284 66.4607C196.504 66.3007 196.614 66.0907 196.614 65.8307C196.614 65.6374 196.551 65.4874 196.424 65.3807C196.304 65.2674 196.144 65.1841 195.944 65.1307C195.744 65.0707 195.521 65.0207 195.274 64.9807C195.027 64.9407 194.781 64.8941 194.534 64.8407C194.294 64.7874 194.074 64.7107 193.874 64.6107C193.674 64.5041 193.511 64.3607 193.384 64.1807C193.264 64.0007 193.204 63.7607 193.204 63.4607C193.204 63.1741 193.284 62.9174 193.444 62.6907C193.604 62.4641 193.837 62.2874 194.144 62.1607C194.457 62.0274 194.837 61.9607 195.284 61.9607C195.624 61.9607 195.964 62.0074 196.304 62.1007C196.644 62.1874 196.924 62.3041 197.144 62.4507L196.834 63.0207C196.601 62.8607 196.351 62.7474 196.084 62.6807C195.817 62.6074 195.551 62.5707 195.284 62.5707C194.811 62.5707 194.461 62.6541 194.234 62.8207C194.014 62.9807 193.904 63.1874 193.904 63.4407C193.904 63.6407 193.964 63.7974 194.084 63.9107C194.211 64.0241 194.374 64.1141 194.574 64.1807C194.781 64.2407 195.004 64.2907 195.244 64.3307C195.491 64.3707 195.734 64.4207 195.974 64.4807C196.221 64.5341 196.444 64.6107 196.644 64.7107C196.851 64.8041 197.014 64.9407 197.134 65.1207C197.261 65.2941 197.324 65.5241 197.324 65.8107C197.324 66.1174 197.237 66.3841 197.064 66.6107C196.897 66.8307 196.651 67.0041 196.324 67.1307C196.004 67.2507 195.614 67.3107 195.154 67.3107ZM200.037 67.3107C199.603 67.3107 199.193 67.2507 198.807 67.1307C198.42 67.0041 198.117 66.8474 197.897 66.6607L198.217 66.1007C198.43 66.2607 198.703 66.4007 199.037 66.5207C199.37 66.6341 199.72 66.6907 200.087 66.6907C200.587 66.6907 200.947 66.6141 201.167 66.4607C201.387 66.3007 201.497 66.0907 201.497 65.8307C201.497 65.6374 201.433 65.4874 201.307 65.3807C201.187 65.2674 201.027 65.1841 200.827 65.1307C200.627 65.0707 200.403 65.0207 200.157 64.9807C199.91 64.9407 199.663 64.8941 199.417 64.8407C199.177 64.7874 198.957 64.7107 198.757 64.6107C198.557 64.5041 198.393 64.3607 198.267 64.1807C198.147 64.0007 198.087 63.7607 198.087 63.4607C198.087 63.1741 198.167 62.9174 198.327 62.6907C198.487 62.4641 198.72 62.2874 199.027 62.1607C199.34 62.0274 199.72 61.9607 200.167 61.9607C200.507 61.9607 200.847 62.0074 201.187 62.1007C201.527 62.1874 201.807 62.3041 202.027 62.4507L201.717 63.0207C201.483 62.8607 201.233 62.7474 200.967 62.6807C200.7 62.6074 200.433 62.5707 200.167 62.5707C199.693 62.5707 199.343 62.6541 199.117 62.8207C198.897 62.9807 198.787 63.1874 198.787 63.4407C198.787 63.6407 198.847 63.7974 198.967 63.9107C199.093 64.0241 199.257 64.1141 199.457 64.1807C199.663 64.2407 199.887 64.2907 200.127 64.3307C200.373 64.3707 200.617 64.4207 200.857 64.4807C201.103 64.5341 201.327 64.6107 201.527 64.7107C201.733 64.8041 201.897 64.9407 202.017 65.1207C202.143 65.2941 202.207 65.5241 202.207 65.8107C202.207 66.1174 202.12 66.3841 201.947 66.6107C201.78 66.8307 201.533 67.0041 201.207 67.1307C200.887 67.2507 200.497 67.3107 200.037 67.3107Z" fill="#325D92"/>
<circle cx="21.2754" cy="61.3036" r="7.5" transform="rotate(23.6181 21.2754 61.3036)" fill="#FCA807"/>
<circle cx="8.28394" cy="38.5446" r="6.29058" transform="rotate(23.6181 8.28394 38.5446)" fill="#FCA807" fill-opacity="0.8"/>
<circle cx="14.978" cy="15.2387" r="5.2989" transform="rotate(23.6181 14.978 15.2387)" fill="#FCA807" fill-opacity="0.6"/>
<circle cx="50.981" cy="6.24172" r="3.02305" transform="rotate(23.6181 50.981 6.24172)" fill="#FCA807" fill-opacity="0.2"/>
<ellipse cx="32.7165" cy="5.18664" rx="4.06939" ry="3.88141" transform="rotate(23.6181 32.7165 5.18664)" fill="#FCA807" fill-opacity="0.4"/>
</svg>
