<svg width="169" height="161" viewBox="0 0 169 161" fill="none" xmlns="http://www.w3.org/2000/svg">
<path d="M93.6303 50.1419L90.1916 53.7717L93.6303 50.1419ZM121.632 157.855C123.115 160.185 126.205 160.871 128.535 159.389L166.499 135.228C168.828 133.745 169.515 130.654 168.032 128.325C166.55 125.995 163.459 125.309 161.13 126.791L127.384 148.268L105.908 114.522C104.425 112.193 101.335 111.506 99.0049 112.989C96.6753 114.471 95.9886 117.562 97.4713 119.891L121.632 157.855ZM1.00047 5.81947C0.910194 10.8187 0.908144 10.8186 0.906271 10.8186C0.905882 10.8186 0.904184 10.8185 0.903406 10.8185C0.901848 10.8185 0.900997 10.8185 0.900845 10.8185C0.900542 10.8185 0.903047 10.8185 0.908335 10.8187C0.91891 10.8189 0.94062 10.8195 0.973285 10.8206C1.03861 10.8227 1.14774 10.8267 1.29923 10.8339C1.60222 10.8483 2.07452 10.8754 2.70461 10.9251C3.96498 11.0247 5.85545 11.215 8.28415 11.5763C13.1428 12.299 20.1462 13.7048 28.5632 16.4327C45.3874 21.8852 67.8641 32.6199 90.1916 53.7717L97.069 46.5121C73.5013 24.1854 49.6631 12.7588 31.6462 6.91979C22.6426 4.00185 15.0939 2.47925 9.75559 1.68511C7.0858 1.28794 4.96657 1.07263 3.49186 0.956168C2.75441 0.897932 2.17782 0.864392 1.77382 0.845196C1.57181 0.835599 1.4129 0.829586 1.29858 0.825865C1.24142 0.824004 1.19539 0.822717 1.16069 0.821841C1.14335 0.821401 1.12883 0.821066 1.11716 0.820815C1.11132 0.820689 1.1062 0.820584 1.1018 0.820496C1.0996 0.820451 1.09683 0.820399 1.09573 0.820379C1.09315 0.820328 1.09074 0.820285 1.00047 5.81947ZM90.1916 53.7717C112.036 74.4662 119.751 99.4795 121.982 119.514C123.097 129.53 122.832 138.244 122.289 144.438C122.018 147.531 121.679 149.985 121.412 151.647C121.278 152.477 121.163 153.109 121.083 153.522C121.043 153.729 121.013 153.881 120.993 153.975C120.983 154.023 120.976 154.056 120.972 154.074C120.97 154.084 120.969 154.089 120.968 154.091C120.968 154.092 120.968 154.092 120.968 154.091C120.968 154.091 120.969 154.09 120.969 154.089C120.969 154.088 120.97 154.086 125.851 155.17C130.732 156.255 130.732 156.253 130.733 156.25C130.733 156.249 130.733 156.246 130.734 156.244C130.735 156.239 130.736 156.234 130.738 156.227C130.74 156.214 130.744 156.197 130.749 156.177C130.757 156.136 130.769 156.08 130.784 156.01C130.813 155.869 130.853 155.67 130.903 155.415C131.001 154.905 131.134 154.172 131.285 153.235C131.586 151.36 131.957 148.666 132.251 145.31C132.838 138.605 133.123 129.213 131.92 118.407C129.515 96.7972 121.119 69.2962 97.069 46.5121L90.1916 53.7717Z" fill="#4EDDE3"/>
</svg>
