<svg width="229" height="54" viewBox="0 0 229 54" fill="none" xmlns="http://www.w3.org/2000/svg">
<path d="M24.9944 13.82C24.8091 18.9134 20.6461 22.947 15.4888 23.0149C10.1633 22.947 5.98324 18.7597 5.98324 13.4786V6.21476H24.9604L24.9774 10.2823C24.8932 11.5128 24.9102 12.6753 24.9944 13.82ZM31.0617 10.3503V6.21476H50.0389V13.4786C50.0389 18.7597 45.8596 22.947 40.5503 23.0149C35.376 22.947 31.213 18.9134 31.0278 13.82C31.1119 12.6753 31.1289 11.4958 31.0617 10.3503ZM53.0564 0.250122H2.96654C1.33159 0.250122 0 1.53155 0 3.18916V13.4786C0 22.0239 6.96049 28.9804 15.4888 28.9804C20.4778 28.9804 25.1125 26.5364 28.011 22.485C30.9096 26.5364 35.5451 28.9804 40.5333 28.9804C49.0616 28.9804 56.0221 22.0239 56.0221 13.4786V3.1212C56.0221 1.53155 54.6905 0.250122 53.0564 0.250122Z" fill="#8274E9"/>
<path d="M48.169 36.1927C46.6352 35.2187 44.5957 35.7316 43.6525 37.3035C43.197 38.004 42.7084 38.7564 42.1186 39.474C41.5621 40.1576 40.9553 40.8072 40.3316 41.388C34.4333 46.9085 25.8378 47.9003 18.9615 43.8498C16.2983 42.2771 14.0234 40.0208 12.3885 37.3205C11.916 36.5341 11.175 35.9881 10.2981 35.7826C9.42195 35.5771 8.52883 35.7316 7.787 36.2267C6.23698 37.2525 5.76454 39.406 6.7426 41.0127C8.9673 44.6871 12.0511 47.7636 15.6916 49.8823C19.5512 52.1556 23.7984 53.2663 28.0116 53.2663C34.0628 53.2663 40.0792 50.9761 44.798 46.5671C45.6579 45.7468 46.4839 44.8747 47.2249 43.9517C48.0679 42.9097 48.7758 41.9009 49.3154 40.9609C50.2586 39.3203 49.753 37.1837 48.169 36.1927Z" fill="#8274E9"/>
<path d="M88.3047 23.6535C87.223 23.5739 86.0949 23.5647 85.0142 23.6281H81.1121V5.65218H87.9785C92.9727 5.65218 96.929 9.61486 96.9879 14.645C96.93 19.5329 93.1232 23.4787 88.3047 23.6535ZM96.9879 38.3578C96.9222 43.41 92.9677 47.3649 87.9785 47.3649H81.1121V29.3893L84.9484 29.388C86.1115 29.4524 87.2111 29.4446 88.3061 29.3626C93.1181 29.537 96.9239 33.4764 96.9879 38.3578ZM102.64 14.6593C102.64 6.57602 96.0627 0 87.9785 0H78.1847C76.6829 0 75.4596 1.2528 75.4596 2.79356V50.2239C75.4596 51.7633 76.6829 53.0161 78.2532 53.0161H87.9785C96.0627 53.0161 102.64 46.44 102.64 38.3578C102.64 33.6373 100.326 29.2518 96.4933 26.5087C100.326 23.7653 102.64 19.3788 102.64 14.6593Z" fill="#8274E9"/>
<path d="M115.394 35.4253C115.518 33.6657 116.211 31.8448 117.278 30.5879C118.535 29.2067 120.608 28.3269 123.122 28.3269C125.446 28.3269 127.33 29.2067 128.524 30.4619C129.654 31.7814 130.283 33.415 130.346 35.4253H115.394ZM123.059 23.1738C118.535 23.1738 114.954 24.746 112.567 27.2577C110.053 29.8975 108.609 33.5411 108.609 37.6867C108.609 42.1474 110.053 45.9173 112.567 48.555C115.204 51.3825 119.101 52.9527 123.875 52.9527C127.016 52.9527 130.031 52.3253 132.481 51.2578C134.428 50.378 135.435 49.4352 135.435 48.0536C135.435 46.6707 134.428 45.4142 133.047 45.4142C132.104 45.4142 131.414 45.9803 130.031 46.6081C128.524 47.2985 126.576 47.8646 124.315 47.8646C121.425 47.8646 119.101 46.8601 117.529 45.0375C116.335 43.718 115.582 41.8967 115.394 39.823H133.361C135.435 39.823 136.628 38.2528 136.628 36.2421C136.628 33.1013 135.748 29.7711 133.172 27.0701C130.911 24.8074 127.519 23.1738 123.059 23.1738Z" fill="#8274E9"/>
<path d="M159.624 46.608C157.803 47.6769 155.792 48.2413 153.908 48.2413C150.955 48.2413 148.19 46.9847 148.19 44.2207C148.19 40.8905 152.839 39.6356 159.624 39.2572V46.608ZM154.912 23.1737C151.959 23.1737 149.132 23.8032 146.808 24.746C144.987 25.4994 143.478 26.3796 143.478 28.0115C143.478 29.3314 144.483 30.3372 145.803 30.3372C146.683 30.3372 147.437 29.9601 148.881 29.3314C150.325 28.7036 152.085 28.1375 154.222 28.1375C155.918 28.1375 157.426 28.5776 158.43 29.7711C159.247 30.7773 159.624 32.0324 159.624 34.0424V34.7982C155.729 35.1116 151.081 35.5513 147.562 36.9959C144.357 38.3154 142.033 40.5137 142.033 44.3467C142.033 49.9379 146.808 52.953 151.898 52.953C154.786 52.953 157.3 52.5759 159.876 51.1947C160.378 52.2619 161.509 52.953 162.828 52.953C164.524 52.953 166.032 51.5715 166.032 49.8118V34.0424C166.032 30.4002 165.153 28.0745 163.644 26.3796C161.257 23.7398 157.74 23.1737 154.912 23.1737Z" fill="#8274E9"/>
<path d="M215.539 26.0011C213.466 24.0538 210.576 23.237 207.624 23.237C205.487 23.237 203.54 23.6138 201.906 24.5566C200.146 25.5627 198.953 27.0073 198.136 28.2638C197.445 26.8179 196.315 25.6244 194.869 24.746C193.111 23.6771 191.101 23.237 188.964 23.237C185.886 23.237 183.059 24.3059 181.236 26.4412V26.3795C181.236 24.6199 179.855 23.237 178.032 23.237C176.211 23.237 174.828 24.6199 174.828 26.3795V49.8118C174.828 51.5718 176.211 53.016 178.032 53.016C179.729 53.016 181.236 51.5718 181.236 49.8118V38.1263C181.3 35.3626 181.676 33.1012 182.619 31.468C183.624 29.708 185.383 28.7039 187.457 28.7039C189.467 28.7039 190.911 29.3943 191.854 30.4618C192.985 31.8447 193.488 33.918 193.488 36.3684V49.8752C193.488 51.5718 194.869 53.016 196.692 53.016C198.388 53.016 199.896 51.5718 199.896 49.8752V37.876C199.896 35.1746 200.273 32.9119 201.277 31.2786C202.283 29.645 204.043 28.7039 206.115 28.7039C208.125 28.7039 209.571 29.3943 210.512 30.4618C211.644 31.8447 212.146 33.918 212.146 36.3684V49.8752C212.146 51.5718 213.529 53.016 215.35 53.016C217.046 53.016 218.554 51.5718 218.554 49.8752V34.7348C218.554 30.5878 217.423 27.7607 215.539 26.0011Z" fill="#8274E9"/>
<path d="M224.458 48.7475H225.03C225.279 48.7475 225.469 48.6909 225.601 48.5771C225.734 48.4633 225.8 48.304 225.8 48.0987C225.8 47.6516 225.543 47.4276 225.03 47.4276H224.458V48.7475ZM224.458 49.4738V51.124H223.622V46.7016H225.151C225.576 46.7016 225.931 46.8354 226.218 47.1031C226.503 47.371 226.646 47.699 226.646 48.0879C226.646 48.3959 226.556 48.6672 226.377 48.9016C226.197 49.1364 225.965 49.3014 225.679 49.3966L226.668 51.124H225.711L224.787 49.4738H224.458ZM222.73 46.6247C222.122 47.2481 221.817 48.0215 221.817 48.946C221.817 49.8699 222.122 50.6457 222.73 51.2721C223.339 51.8992 224.084 52.2129 224.964 52.2129C225.844 52.2129 226.588 51.8992 227.196 51.2721C227.805 50.6457 228.109 49.8699 228.109 48.946C228.109 48.0215 227.805 47.2481 227.196 46.6247C226.588 46.0017 225.844 45.6897 224.964 45.6897C224.084 45.6897 223.339 46.0017 222.73 46.6247ZM222.131 51.8219C221.35 51.0268 220.96 50.0674 220.96 48.946C220.96 47.8237 221.35 46.8669 222.131 46.0745C222.912 45.2828 223.856 44.8868 224.964 44.8868C226.078 44.8868 227.03 45.2845 227.818 46.08C228.606 46.8761 229 47.8311 229 48.946C229 50.0674 228.606 51.0268 227.818 51.8219C227.03 52.618 226.078 53.0161 224.964 53.0161C223.856 53.0161 222.912 52.618 222.131 51.8219Z" fill="#8274E9"/>
</svg>
